<mxfile host="app.diagrams.net" modified="2020-05-23T14:00:38.576Z" agent="5.0 (Windows NT 10.0; Win64; x64) AppleWebKit/537.36 (KHTML, like Gecko) Chrome/81.0.4044.138 Safari/537.36" etag="HYY7onrrsw69tz4J_AS4" version="13.1.3" type="gitlab" pages="3">
  <diagram id="_wxtW5tvYeZp-APcoAOD" name="MODEL">
    <mxGraphModel dx="1102" dy="582" grid="1" gridSize="10" guides="1" tooltips="1" connect="1" arrows="1" fold="1" page="1" pageScale="1" pageWidth="827" pageHeight="1169" math="1" shadow="0">
      <root>
        <mxCell id="0" />
        <mxCell id="1" parent="0" />
        <mxCell id="VDnV0qBYJ1y_uejWPZv0-7" style="edgeStyle=orthogonalEdgeStyle;rounded=0;orthogonalLoop=1;jettySize=auto;html=1;exitX=0.5;exitY=1;exitDx=0;exitDy=0;" parent="1" source="VDnV0qBYJ1y_uejWPZv0-1" target="VDnV0qBYJ1y_uejWPZv0-2" edge="1">
          <mxGeometry relative="1" as="geometry">
            <Array as="points">
              <mxPoint x="410" y="160" />
              <mxPoint x="80" y="160" />
            </Array>
          </mxGeometry>
        </mxCell>
        <mxCell id="VDnV0qBYJ1y_uejWPZv0-1" value="HEALTHIIONS" style="rounded=0;whiteSpace=wrap;html=1;" parent="1" vertex="1">
          <mxGeometry x="350" y="60" width="120" height="60" as="geometry" />
        </mxCell>
        <mxCell id="VDnV0qBYJ1y_uejWPZv0-16" style="edgeStyle=orthogonalEdgeStyle;rounded=0;orthogonalLoop=1;jettySize=auto;html=1;exitX=0.5;exitY=1;exitDx=0;exitDy=0;entryX=0.5;entryY=0;entryDx=0;entryDy=0;" parent="1" source="VDnV0qBYJ1y_uejWPZv0-2" target="VDnV0qBYJ1y_uejWPZv0-12" edge="1">
          <mxGeometry relative="1" as="geometry" />
        </mxCell>
        <mxCell id="VDnV0qBYJ1y_uejWPZv0-23" style="edgeStyle=orthogonalEdgeStyle;rounded=0;orthogonalLoop=1;jettySize=auto;html=1;exitX=0.75;exitY=0;exitDx=0;exitDy=0;entryX=0.25;entryY=0;entryDx=0;entryDy=0;" parent="1" source="VDnV0qBYJ1y_uejWPZv0-2" target="VDnV0qBYJ1y_uejWPZv0-3" edge="1">
          <mxGeometry relative="1" as="geometry" />
        </mxCell>
        <mxCell id="VDnV0qBYJ1y_uejWPZv0-2" value="PRESCRIPTION" style="rounded=0;whiteSpace=wrap;html=1;fillColor=#99FFFF;" parent="1" vertex="1">
          <mxGeometry x="20" y="200" width="120" height="60" as="geometry" />
        </mxCell>
        <mxCell id="VDnV0qBYJ1y_uejWPZv0-8" style="edgeStyle=orthogonalEdgeStyle;rounded=0;orthogonalLoop=1;jettySize=auto;html=1;exitX=0.5;exitY=0;exitDx=0;exitDy=0;" parent="1" source="VDnV0qBYJ1y_uejWPZv0-3" edge="1">
          <mxGeometry relative="1" as="geometry">
            <mxPoint x="410" y="120" as="targetPoint" />
          </mxGeometry>
        </mxCell>
        <mxCell id="VDnV0qBYJ1y_uejWPZv0-3" value="MEDICINE" style="rounded=0;whiteSpace=wrap;html=1;fillColor=#99FFFF;" parent="1" vertex="1">
          <mxGeometry x="170" y="200" width="120" height="60" as="geometry" />
        </mxCell>
        <mxCell id="VDnV0qBYJ1y_uejWPZv0-9" style="edgeStyle=orthogonalEdgeStyle;rounded=0;orthogonalLoop=1;jettySize=auto;html=1;exitX=0.5;exitY=0;exitDx=0;exitDy=0;" parent="1" source="VDnV0qBYJ1y_uejWPZv0-4" target="VDnV0qBYJ1y_uejWPZv0-1" edge="1">
          <mxGeometry relative="1" as="geometry" />
        </mxCell>
        <mxCell id="VDnV0qBYJ1y_uejWPZv0-21" style="edgeStyle=orthogonalEdgeStyle;rounded=0;orthogonalLoop=1;jettySize=auto;html=1;exitX=0.5;exitY=1;exitDx=0;exitDy=0;entryX=0.5;entryY=0;entryDx=0;entryDy=0;fillColor=#FFCCFF;" parent="1" source="VDnV0qBYJ1y_uejWPZv0-4" target="VDnV0qBYJ1y_uejWPZv0-18" edge="1">
          <mxGeometry relative="1" as="geometry" />
        </mxCell>
        <mxCell id="VDnV0qBYJ1y_uejWPZv0-4" value="TELEMEDICINE" style="rounded=0;whiteSpace=wrap;html=1;fillColor=#FFCCFF;" parent="1" vertex="1">
          <mxGeometry x="320" y="200" width="120" height="60" as="geometry" />
        </mxCell>
        <mxCell id="VDnV0qBYJ1y_uejWPZv0-10" style="edgeStyle=orthogonalEdgeStyle;rounded=0;orthogonalLoop=1;jettySize=auto;html=1;exitX=0.5;exitY=0;exitDx=0;exitDy=0;entryX=0.5;entryY=1;entryDx=0;entryDy=0;" parent="1" source="VDnV0qBYJ1y_uejWPZv0-5" target="VDnV0qBYJ1y_uejWPZv0-1" edge="1">
          <mxGeometry relative="1" as="geometry" />
        </mxCell>
        <mxCell id="VDnV0qBYJ1y_uejWPZv0-22" style="edgeStyle=orthogonalEdgeStyle;rounded=0;orthogonalLoop=1;jettySize=auto;html=1;exitX=0.25;exitY=0;exitDx=0;exitDy=0;entryX=0.75;entryY=0;entryDx=0;entryDy=0;" parent="1" source="VDnV0qBYJ1y_uejWPZv0-5" target="VDnV0qBYJ1y_uejWPZv0-3" edge="1">
          <mxGeometry relative="1" as="geometry" />
        </mxCell>
        <mxCell id="VDnV0qBYJ1y_uejWPZv0-5" value="FARMACY" style="rounded=0;whiteSpace=wrap;html=1;" parent="1" vertex="1">
          <mxGeometry x="470" y="200" width="120" height="60" as="geometry" />
        </mxCell>
        <mxCell id="VDnV0qBYJ1y_uejWPZv0-11" style="edgeStyle=orthogonalEdgeStyle;rounded=0;orthogonalLoop=1;jettySize=auto;html=1;exitX=0.5;exitY=0;exitDx=0;exitDy=0;" parent="1" source="VDnV0qBYJ1y_uejWPZv0-6" edge="1">
          <mxGeometry relative="1" as="geometry">
            <mxPoint x="410" y="120" as="targetPoint" />
          </mxGeometry>
        </mxCell>
        <mxCell id="VDnV0qBYJ1y_uejWPZv0-6" value="" style="rounded=0;whiteSpace=wrap;html=1;" parent="1" vertex="1">
          <mxGeometry x="620" y="200" width="120" height="60" as="geometry" />
        </mxCell>
        <mxCell id="VDnV0qBYJ1y_uejWPZv0-14" style="edgeStyle=orthogonalEdgeStyle;rounded=0;orthogonalLoop=1;jettySize=auto;html=1;exitX=0.25;exitY=1;exitDx=0;exitDy=0;entryX=0.25;entryY=0;entryDx=0;entryDy=0;fillColor=#99FFFF;" parent="1" source="VDnV0qBYJ1y_uejWPZv0-12" target="VDnV0qBYJ1y_uejWPZv0-13" edge="1">
          <mxGeometry relative="1" as="geometry" />
        </mxCell>
        <mxCell id="VDnV0qBYJ1y_uejWPZv0-12" value="DOCTOR" style="rounded=0;whiteSpace=wrap;html=1;fillColor=#99FFFF;" parent="1" vertex="1">
          <mxGeometry x="20" y="350" width="120" height="60" as="geometry" />
        </mxCell>
        <mxCell id="VDnV0qBYJ1y_uejWPZv0-15" style="edgeStyle=orthogonalEdgeStyle;rounded=0;orthogonalLoop=1;jettySize=auto;html=1;exitX=0.75;exitY=0;exitDx=0;exitDy=0;entryX=0.75;entryY=1;entryDx=0;entryDy=0;fillColor=#99FFFF;" parent="1" source="VDnV0qBYJ1y_uejWPZv0-13" target="VDnV0qBYJ1y_uejWPZv0-12" edge="1">
          <mxGeometry relative="1" as="geometry" />
        </mxCell>
        <mxCell id="VDnV0qBYJ1y_uejWPZv0-13" value="PATIENT" style="rounded=0;whiteSpace=wrap;html=1;fillColor=#99FFFF;" parent="1" vertex="1">
          <mxGeometry x="20" y="510" width="120" height="60" as="geometry" />
        </mxCell>
        <mxCell id="VDnV0qBYJ1y_uejWPZv0-17" style="edgeStyle=orthogonalEdgeStyle;rounded=0;orthogonalLoop=1;jettySize=auto;html=1;exitX=0.25;exitY=1;exitDx=0;exitDy=0;entryX=0.25;entryY=0;entryDx=0;entryDy=0;fillColor=#FFCCFF;" parent="1" source="VDnV0qBYJ1y_uejWPZv0-18" target="VDnV0qBYJ1y_uejWPZv0-20" edge="1">
          <mxGeometry relative="1" as="geometry" />
        </mxCell>
        <mxCell id="VDnV0qBYJ1y_uejWPZv0-18" value="DOCTOR" style="rounded=0;whiteSpace=wrap;html=1;fillColor=#FFCCFF;" parent="1" vertex="1">
          <mxGeometry x="320" y="340" width="120" height="60" as="geometry" />
        </mxCell>
        <mxCell id="VDnV0qBYJ1y_uejWPZv0-19" style="edgeStyle=orthogonalEdgeStyle;rounded=0;orthogonalLoop=1;jettySize=auto;html=1;exitX=0.75;exitY=0;exitDx=0;exitDy=0;entryX=0.75;entryY=1;entryDx=0;entryDy=0;fillColor=#FFCCFF;" parent="1" source="VDnV0qBYJ1y_uejWPZv0-20" target="VDnV0qBYJ1y_uejWPZv0-18" edge="1">
          <mxGeometry relative="1" as="geometry" />
        </mxCell>
        <mxCell id="VDnV0qBYJ1y_uejWPZv0-20" value="PATIENT" style="rounded=0;whiteSpace=wrap;html=1;fillColor=#FFCCFF;" parent="1" vertex="1">
          <mxGeometry x="320" y="500" width="120" height="60" as="geometry" />
        </mxCell>
      </root>
    </mxGraphModel>
  </diagram>
  <diagram id="KIeQix16ujT752Mx0l3L" name="MVP">
    
    <mxGraphModel dx="1662" dy="762" grid="1" gridSize="10" guides="1" tooltips="1" connect="1" arrows="1" fold="1" page="1" pageScale="1" pageWidth="827" pageHeight="1169" math="0" shadow="0">
      
      <root>
        
        <mxCell id="RAfHPHr3ag4zy3P1qR-h-0" />
        
        <mxCell id="RAfHPHr3ag4zy3P1qR-h-1" parent="RAfHPHr3ag4zy3P1qR-h-0" />
        
        <mxCell id="QpcbrPo6hMZNengNT1Li-17" value="" style="edgeStyle=orthogonalEdgeStyle;rounded=0;orthogonalLoop=1;jettySize=auto;html=1;fillColor=#FFCCFF;" parent="RAfHPHr3ag4zy3P1qR-h-1" source="QpcbrPo6hMZNengNT1Li-16" target="QpcbrPo6hMZNengNT1Li-15" edge="1">
          
          <mxGeometry relative="1" as="geometry" />
          
        </mxCell>
        
        <mxCell id="QpcbrPo6hMZNengNT1Li-20" style="edgeStyle=orthogonalEdgeStyle;rounded=0;orthogonalLoop=1;jettySize=auto;html=1;exitX=0.25;exitY=1;exitDx=0;exitDy=0;entryX=0.5;entryY=0;entryDx=0;entryDy=0;fillColor=#FFCCFF;" parent="RAfHPHr3ag4zy3P1qR-h-1" source="QpcbrPo6hMZNengNT1Li-14" target="QpcbrPo6hMZNengNT1Li-19" edge="1">
          
          <mxGeometry relative="1" as="geometry" />
          
        </mxCell>
        
        <mxCell id="QpcbrPo6hMZNengNT1Li-14" value="&lt;b&gt;&lt;font style=&quot;font-size: 24px&quot;&gt;23/05/2020&lt;/font&gt;&lt;/b&gt;" style="rounded=0;whiteSpace=wrap;html=1;fillColor=#FFCCFF;" parent="RAfHPHr3ag4zy3P1qR-h-1" vertex="1">
          
          <mxGeometry y="80" width="830" height="370" as="geometry" />
          
        </mxCell>
        
        <mxCell id="QpcbrPo6hMZNengNT1Li-15" value="" style="rounded=0;whiteSpace=wrap;html=1;fillColor=#FAFFE8;" parent="RAfHPHr3ag4zy3P1qR-h-1" vertex="1">
          
          <mxGeometry y="660" width="850" height="340" as="geometry" />
          
        </mxCell>
        
        <mxCell id="QpcbrPo6hMZNengNT1Li-16" value="TELEMEDICINE" style="rounded=0;whiteSpace=wrap;html=1;fillColor=#66B2FF;" parent="RAfHPHr3ag4zy3P1qR-h-1" vertex="1">
          
          <mxGeometry x="360" y="525" width="120" height="60" as="geometry" />
          
        </mxCell>
        
        <mxCell id="QpcbrPo6hMZNengNT1Li-18" value="" style="edgeStyle=orthogonalEdgeStyle;rounded=0;orthogonalLoop=1;jettySize=auto;html=1;fillColor=#FFCCFF;" parent="RAfHPHr3ag4zy3P1qR-h-1" source="QpcbrPo6hMZNengNT1Li-14" target="QpcbrPo6hMZNengNT1Li-16" edge="1">
          
          <mxGeometry relative="1" as="geometry">
            
            <mxPoint x="415" y="450" as="sourcePoint" />
            
            <mxPoint x="415" y="520" as="targetPoint" />
            
          </mxGeometry>
          
        </mxCell>
        
        <mxCell id="QpcbrPo6hMZNengNT1Li-21" style="edgeStyle=orthogonalEdgeStyle;rounded=0;orthogonalLoop=1;jettySize=auto;html=1;exitX=0.5;exitY=1;exitDx=0;exitDy=0;entryX=0.25;entryY=0;entryDx=0;entryDy=0;fillColor=#FFCCFF;" parent="RAfHPHr3ag4zy3P1qR-h-1" source="QpcbrPo6hMZNengNT1Li-19" target="QpcbrPo6hMZNengNT1Li-15" edge="1">
          
          <mxGeometry relative="1" as="geometry" />
          
        </mxCell>
        
        <mxCell id="QpcbrPo6hMZNengNT1Li-19" value="PRESCRIPTION" style="rounded=0;whiteSpace=wrap;html=1;fillColor=#66B2FF;" parent="RAfHPHr3ag4zy3P1qR-h-1" vertex="1">
          
          <mxGeometry x="70" y="520" width="120" height="60" as="geometry" />
          
        </mxCell>
        
        <mxCell id="QpcbrPo6hMZNengNT1Li-31" style="edgeStyle=orthogonalEdgeStyle;rounded=0;orthogonalLoop=1;jettySize=auto;html=1;exitX=1;exitY=0.75;exitDx=0;exitDy=0;entryX=0.5;entryY=0;entryDx=0;entryDy=0;fillColor=#FFCCFF;" parent="RAfHPHr3ag4zy3P1qR-h-1" source="QpcbrPo6hMZNengNT1Li-22" target="QpcbrPo6hMZNengNT1Li-28" edge="1">
          
          <mxGeometry relative="1" as="geometry" />
          
        </mxCell>
        
        <mxCell id="QpcbrPo6hMZNengNT1Li-22" value="DOCTOR" style="rounded=0;whiteSpace=wrap;html=1;fillColor=#66B2FF;" parent="RAfHPHr3ag4zy3P1qR-h-1" vertex="1">
          
          <mxGeometry x="40" y="690" width="120" height="60" as="geometry" />
          
        </mxCell>
        
        <mxCell id="QpcbrPo6hMZNengNT1Li-29" style="edgeStyle=orthogonalEdgeStyle;rounded=0;orthogonalLoop=1;jettySize=auto;html=1;exitX=1;exitY=0.5;exitDx=0;exitDy=0;entryX=0;entryY=0.25;entryDx=0;entryDy=0;fillColor=#FFCCFF;" parent="RAfHPHr3ag4zy3P1qR-h-1" source="QpcbrPo6hMZNengNT1Li-23" target="QpcbrPo6hMZNengNT1Li-25" edge="1">
          
          <mxGeometry relative="1" as="geometry" />
          
        </mxCell>
        
        <mxCell id="QpcbrPo6hMZNengNT1Li-23" value="PATIENT" style="rounded=0;whiteSpace=wrap;html=1;fillColor=#66B2FF;" parent="RAfHPHr3ag4zy3P1qR-h-1" vertex="1">
          
          <mxGeometry x="40" y="890" width="120" height="60" as="geometry" />
          
        </mxCell>
        
        <mxCell id="QpcbrPo6hMZNengNT1Li-30" style="edgeStyle=orthogonalEdgeStyle;rounded=0;orthogonalLoop=1;jettySize=auto;html=1;exitX=0;exitY=0.5;exitDx=0;exitDy=0;fillColor=#FFCCFF;" parent="RAfHPHr3ag4zy3P1qR-h-1" source="QpcbrPo6hMZNengNT1Li-24" target="QpcbrPo6hMZNengNT1Li-22" edge="1">
          
          <mxGeometry relative="1" as="geometry" />
          
        </mxCell>
        
        <mxCell id="QpcbrPo6hMZNengNT1Li-32" style="edgeStyle=orthogonalEdgeStyle;rounded=0;orthogonalLoop=1;jettySize=auto;html=1;exitX=0.5;exitY=1;exitDx=0;exitDy=0;entryX=0.992;entryY=0.133;entryDx=0;entryDy=0;entryPerimeter=0;fillColor=#FFCCFF;" parent="RAfHPHr3ag4zy3P1qR-h-1" source="QpcbrPo6hMZNengNT1Li-28" target="QpcbrPo6hMZNengNT1Li-23" edge="1">
          
          <mxGeometry relative="1" as="geometry" />
          
        </mxCell>
        
        <mxCell id="QpcbrPo6hMZNengNT1Li-28" value="PRESCRIPTION" style="rounded=0;whiteSpace=wrap;html=1;fillColor=#66B2FF;" parent="RAfHPHr3ag4zy3P1qR-h-1" vertex="1">
          
          <mxGeometry x="210" y="790" width="120" height="60" as="geometry" />
          
        </mxCell>
        
        <mxCell id="QpcbrPo6hMZNengNT1Li-33" value="" style="group;fillColor=#05FFE6;" parent="RAfHPHr3ag4zy3P1qR-h-1" vertex="1" connectable="0">
          
          <mxGeometry x="710" y="680" width="120" height="300" as="geometry" />
          
        </mxCell>
        
        <mxCell id="QpcbrPo6hMZNengNT1Li-24" value="COMMUNICATION" style="rounded=0;whiteSpace=wrap;html=1;fillColor=#66B2FF;" parent="QpcbrPo6hMZNengNT1Li-33" vertex="1">
          
          <mxGeometry width="120" height="60" as="geometry" />
          
        </mxCell>
        
        <mxCell id="QpcbrPo6hMZNengNT1Li-25" value="CHAT" style="rounded=0;whiteSpace=wrap;html=1;fillColor=#66B2FF;" parent="QpcbrPo6hMZNengNT1Li-33" vertex="1">
          
          <mxGeometry y="80" width="120" height="60" as="geometry" />
          
        </mxCell>
        
        <mxCell id="QpcbrPo6hMZNengNT1Li-26" value="VOICE" style="rounded=0;whiteSpace=wrap;html=1;fillColor=#66B2FF;" parent="QpcbrPo6hMZNengNT1Li-33" vertex="1">
          
          <mxGeometry y="160" width="120" height="60" as="geometry" />
          
        </mxCell>
        
        <mxCell id="QpcbrPo6hMZNengNT1Li-27" value="VIDEO" style="rounded=0;whiteSpace=wrap;html=1;fillColor=#66B2FF;" parent="QpcbrPo6hMZNengNT1Li-33" vertex="1">
          
          <mxGeometry y="240" width="120" height="60" as="geometry" />
          
        </mxCell>
        
        <mxCell id="QpcbrPo6hMZNengNT1Li-34" value="" style="group" parent="RAfHPHr3ag4zy3P1qR-h-1" vertex="1" connectable="0">
          
          <mxGeometry x="29" y="30" width="770" height="390" as="geometry" />
          
        </mxCell>
        
        <mxCell id="QpcbrPo6hMZNengNT1Li-0" value="MVP" style="rounded=0;whiteSpace=wrap;html=1;fillColor=#CCE5FF;" parent="QpcbrPo6hMZNengNT1Li-34" vertex="1">
          
          <mxGeometry x="324" width="120" height="60" as="geometry" />
          
        </mxCell>
        
        <mxCell id="S1ArA3jGLAKDluHUIFG6-2" style="edgeStyle=orthogonalEdgeStyle;rounded=0;orthogonalLoop=1;jettySize=auto;html=1;exitX=1;exitY=0.5;exitDx=0;exitDy=0;entryX=0;entryY=0.5;entryDx=0;entryDy=0;" parent="QpcbrPo6hMZNengNT1Li-34" source="QpcbrPo6hMZNengNT1Li-1" target="S1ArA3jGLAKDluHUIFG6-0" edge="1">
          
          <mxGeometry relative="1" as="geometry" />
          
        </mxCell>
        
        <mxCell id="QpcbrPo6hMZNengNT1Li-1" value="DOCTOR" style="rounded=0;whiteSpace=wrap;html=1;fillColor=#CCE5FF;" parent="QpcbrPo6hMZNengNT1Li-34" vertex="1">
          
          <mxGeometry y="150" width="120" height="60" as="geometry" />
          
        </mxCell>
        
        <mxCell id="QpcbrPo6hMZNengNT1Li-2" value="PATIENT" style="rounded=0;whiteSpace=wrap;html=1;fillColor=#CCE5FF;" parent="QpcbrPo6hMZNengNT1Li-34" vertex="1">
          
          <mxGeometry y="330" width="120" height="60" as="geometry" />
          
        </mxCell>
        
        <mxCell id="QpcbrPo6hMZNengNT1Li-3" value="MEDICINE" style="rounded=0;whiteSpace=wrap;html=1;fillColor=#CCE5FF;" parent="QpcbrPo6hMZNengNT1Li-34" vertex="1">
          
          <mxGeometry y="240" width="120" height="60" as="geometry" />
          
        </mxCell>
        
        <mxCell id="QpcbrPo6hMZNengNT1Li-4" value="PRESCRIPTION" style="rounded=0;whiteSpace=wrap;html=1;fillColor=#CCE5FF;" parent="QpcbrPo6hMZNengNT1Li-34" vertex="1">
          
          <mxGeometry x="650" y="230" width="120" height="60" as="geometry" />
          
        </mxCell>
        
        <mxCell id="QpcbrPo6hMZNengNT1Li-9" style="edgeStyle=orthogonalEdgeStyle;rounded=0;orthogonalLoop=1;jettySize=auto;html=1;exitX=1;exitY=0.5;exitDx=0;exitDy=0;entryX=0.5;entryY=0;entryDx=0;entryDy=0;fillColor=#FFCCFF;" parent="QpcbrPo6hMZNengNT1Li-34" source="QpcbrPo6hMZNengNT1Li-5" target="QpcbrPo6hMZNengNT1Li-4" edge="1">
          
          <mxGeometry relative="1" as="geometry" />
          
        </mxCell>
        
        <mxCell id="QpcbrPo6hMZNengNT1Li-5" value="WRITE" style="rounded=0;whiteSpace=wrap;html=1;fillColor=#CCE5FF;" parent="QpcbrPo6hMZNengNT1Li-34" vertex="1">
          
          <mxGeometry x="470" y="180" width="120" height="60" as="geometry" />
          
        </mxCell>
        
        <mxCell id="QpcbrPo6hMZNengNT1Li-8" style="edgeStyle=orthogonalEdgeStyle;rounded=0;orthogonalLoop=1;jettySize=auto;html=1;exitX=1;exitY=0.5;exitDx=0;exitDy=0;entryX=0;entryY=0.5;entryDx=0;entryDy=0;fillColor=#FFCCFF;" parent="QpcbrPo6hMZNengNT1Li-34" source="QpcbrPo6hMZNengNT1Li-1" target="QpcbrPo6hMZNengNT1Li-5" edge="1">
          
          <mxGeometry relative="1" as="geometry" />
          
        </mxCell>
        
        <mxCell id="QpcbrPo6hMZNengNT1Li-10" style="edgeStyle=orthogonalEdgeStyle;rounded=0;orthogonalLoop=1;jettySize=auto;html=1;exitX=1;exitY=0.5;exitDx=0;exitDy=0;entryX=0;entryY=0.5;entryDx=0;entryDy=0;fillColor=#FFCCFF;" parent="QpcbrPo6hMZNengNT1Li-34" source="QpcbrPo6hMZNengNT1Li-3" target="QpcbrPo6hMZNengNT1Li-5" edge="1">
          
          <mxGeometry relative="1" as="geometry" />
          
        </mxCell>
        
        <mxCell id="QpcbrPo6hMZNengNT1Li-12" style="edgeStyle=orthogonalEdgeStyle;rounded=0;orthogonalLoop=1;jettySize=auto;html=1;exitX=1;exitY=0.5;exitDx=0;exitDy=0;entryX=0.5;entryY=1;entryDx=0;entryDy=0;fillColor=#FFCCFF;" parent="QpcbrPo6hMZNengNT1Li-34" source="QpcbrPo6hMZNengNT1Li-6" target="QpcbrPo6hMZNengNT1Li-4" edge="1">
          
          <mxGeometry relative="1" as="geometry" />
          
        </mxCell>
        
        <mxCell id="QpcbrPo6hMZNengNT1Li-6" value="READ" style="rounded=0;whiteSpace=wrap;html=1;fillColor=#CCE5FF;" parent="QpcbrPo6hMZNengNT1Li-34" vertex="1">
          
          <mxGeometry x="470" y="310" width="120" height="60" as="geometry" />
          
        </mxCell>
        
        <mxCell id="QpcbrPo6hMZNengNT1Li-11" style="edgeStyle=orthogonalEdgeStyle;rounded=0;orthogonalLoop=1;jettySize=auto;html=1;exitX=1;exitY=0.5;exitDx=0;exitDy=0;fillColor=#FFCCFF;" parent="QpcbrPo6hMZNengNT1Li-34" source="QpcbrPo6hMZNengNT1Li-2" target="QpcbrPo6hMZNengNT1Li-6" edge="1">
          
          <mxGeometry relative="1" as="geometry" />
          
        </mxCell>
        
        <mxCell id="QpcbrPo6hMZNengNT1Li-36" style="edgeStyle=orthogonalEdgeStyle;rounded=0;orthogonalLoop=1;jettySize=auto;html=1;exitX=1;exitY=0.5;exitDx=0;exitDy=0;fillColor=#FFCCFF;" parent="QpcbrPo6hMZNengNT1Li-34" source="QpcbrPo6hMZNengNT1Li-35" target="QpcbrPo6hMZNengNT1Li-5" edge="1">
          
          <mxGeometry relative="1" as="geometry" />
          
        </mxCell>
        
        <mxCell id="QpcbrPo6hMZNengNT1Li-35" value="LAB" style="rounded=0;whiteSpace=wrap;html=1;fillColor=#CCE5FF;" parent="QpcbrPo6hMZNengNT1Li-34" vertex="1">
          
          <mxGeometry y="60" width="120" height="60" as="geometry" />
          
        </mxCell>
        
        <mxCell id="S1ArA3jGLAKDluHUIFG6-3" style="edgeStyle=orthogonalEdgeStyle;rounded=0;orthogonalLoop=1;jettySize=auto;html=1;exitX=0.5;exitY=1;exitDx=0;exitDy=0;entryX=0.5;entryY=1;entryDx=0;entryDy=0;" parent="QpcbrPo6hMZNengNT1Li-34" source="S1ArA3jGLAKDluHUIFG6-0" target="QpcbrPo6hMZNengNT1Li-2" edge="1">
          
          <mxGeometry relative="1" as="geometry">
            
            <Array as="points">
              
              <mxPoint x="701" y="190" />
              
              <mxPoint x="791" y="190" />
              
              <mxPoint x="791" y="410" />
              
              <mxPoint x="60" y="410" />
              
            </Array>
            
          </mxGeometry>
          
        </mxCell>
        
        <mxCell id="S1ArA3jGLAKDluHUIFG6-0" value="APPOINTMENT" style="rounded=0;whiteSpace=wrap;html=1;fillColor=#FF99CC;" parent="QpcbrPo6hMZNengNT1Li-34" vertex="1">
          
          <mxGeometry x="641" y="90" width="120" height="60" as="geometry" />
          
        </mxCell>
        
      </root>
      
    </mxGraphModel>
    
  </diagram>
  <diagram id="0u23bMXfOk-hHWLHDZ_j" name="Database">
    <mxGraphModel dx="506" dy="546" grid="1" gridSize="10" guides="1" tooltips="1" connect="1" arrows="1" fold="1" page="1" pageScale="1" pageWidth="1920" pageHeight="1200" math="0" shadow="0">
      <root>
        <mxCell id="SRl8x0ed0Uv4gBD99huN-0" />
        <mxCell id="SRl8x0ed0Uv4gBD99huN-1" parent="SRl8x0ed0Uv4gBD99huN-0" />
        <mxCell id="SRl8x0ed0Uv4gBD99huN-24" value="&lt;font style=&quot;font-size: 24px&quot;&gt;Schema Design&lt;/font&gt;" style="text;html=1;strokeColor=none;fillColor=none;align=center;verticalAlign=middle;whiteSpace=wrap;rounded=0;glass=0;" parent="SRl8x0ed0Uv4gBD99huN-1" vertex="1">
          <mxGeometry x="50" y="20" width="190" height="20" as="geometry" />
        </mxCell>
        <mxCell id="SRl8x0ed0Uv4gBD99huN-20" value="USER" style="swimlane;fontStyle=0;childLayout=stackLayout;horizontal=1;startSize=22;horizontalStack=0;resizeParent=1;resizeParentMax=0;resizeLast=0;collapsible=1;marginBottom=0;align=center;fontSize=14;rounded=1;glass=0;fillColor=#f5f5f5;strokeColor=#666666;fontColor=#333333;" parent="SRl8x0ed0Uv4gBD99huN-1" vertex="1">
          <mxGeometry x="40" y="120" width="140" height="126" as="geometry" />
        </mxCell>
        <mxCell id="SRl8x0ed0Uv4gBD99huN-21" value="_id" style="text;strokeColor=none;fillColor=none;spacingLeft=4;spacingRight=4;overflow=hidden;rotatable=0;points=[[0,0.5],[1,0.5]];portConstraint=eastwest;fontSize=14;" parent="SRl8x0ed0Uv4gBD99huN-20" vertex="1">
          <mxGeometry y="22" width="140" height="26" as="geometry" />
        </mxCell>
        <mxCell id="SRl8x0ed0Uv4gBD99huN-27" value="email" style="text;strokeColor=none;fillColor=none;spacingLeft=4;spacingRight=4;overflow=hidden;rotatable=0;points=[[0,0.5],[1,0.5]];portConstraint=eastwest;fontSize=14;" parent="SRl8x0ed0Uv4gBD99huN-20" vertex="1">
          <mxGeometry y="48" width="140" height="26" as="geometry" />
        </mxCell>
        <mxCell id="SRl8x0ed0Uv4gBD99huN-28" value="password" style="text;strokeColor=none;fillColor=none;spacingLeft=4;spacingRight=4;overflow=hidden;rotatable=0;points=[[0,0.5],[1,0.5]];portConstraint=eastwest;fontSize=14;" parent="SRl8x0ed0Uv4gBD99huN-20" vertex="1">
          <mxGeometry y="74" width="140" height="26" as="geometry" />
        </mxCell>
        <mxCell id="SRl8x0ed0Uv4gBD99huN-29" value="userType (discriminator)" style="text;strokeColor=none;fillColor=none;spacingLeft=4;spacingRight=4;overflow=hidden;rotatable=0;points=[[0,0.5],[1,0.5]];portConstraint=eastwest;fontSize=14;" parent="SRl8x0ed0Uv4gBD99huN-20" vertex="1">
          <mxGeometry y="100" width="140" height="26" as="geometry" />
        </mxCell>
        <mxCell id="WeeLCfKM3l2U3quB_03S-0" value="Doctor" style="swimlane;fontStyle=0;childLayout=stackLayout;horizontal=1;startSize=22;horizontalStack=0;resizeParent=1;resizeParentMax=0;resizeLast=0;collapsible=1;marginBottom=0;align=center;fontSize=14;rounded=1;glass=0;fillColor=#f5f5f5;strokeColor=#666666;fontColor=#333333;" vertex="1" parent="SRl8x0ed0Uv4gBD99huN-1">
          <mxGeometry x="40" y="301" width="140" height="282" as="geometry" />
        </mxCell>
        <mxCell id="WeeLCfKM3l2U3quB_03S-1" value="_id" style="text;strokeColor=none;fillColor=none;spacingLeft=4;spacingRight=4;overflow=hidden;rotatable=0;points=[[0,0.5],[1,0.5]];portConstraint=eastwest;fontSize=14;" vertex="1" parent="WeeLCfKM3l2U3quB_03S-0">
          <mxGeometry y="22" width="140" height="26" as="geometry" />
        </mxCell>
        <mxCell id="WeeLCfKM3l2U3quB_03S-2" value="name" style="text;strokeColor=none;fillColor=none;spacingLeft=4;spacingRight=4;overflow=hidden;rotatable=0;points=[[0,0.5],[1,0.5]];portConstraint=eastwest;fontSize=14;" vertex="1" parent="WeeLCfKM3l2U3quB_03S-0">
          <mxGeometry y="48" width="140" height="26" as="geometry" />
        </mxCell>
        <mxCell id="WeeLCfKM3l2U3quB_03S-3" value="birthDate" style="text;strokeColor=none;fillColor=none;spacingLeft=4;spacingRight=4;overflow=hidden;rotatable=0;points=[[0,0.5],[1,0.5]];portConstraint=eastwest;fontSize=14;" vertex="1" parent="WeeLCfKM3l2U3quB_03S-0">
          <mxGeometry y="74" width="140" height="26" as="geometry" />
        </mxCell>
        <mxCell id="WeeLCfKM3l2U3quB_03S-10" value="bmdcNumber" style="text;strokeColor=none;fillColor=none;spacingLeft=4;spacingRight=4;overflow=hidden;rotatable=0;points=[[0,0.5],[1,0.5]];portConstraint=eastwest;fontSize=14;" vertex="1" parent="WeeLCfKM3l2U3quB_03S-0">
          <mxGeometry y="100" width="140" height="26" as="geometry" />
        </mxCell>
        <mxCell id="WeeLCfKM3l2U3quB_03S-11" value="tel" style="text;strokeColor=none;fillColor=none;spacingLeft=4;spacingRight=4;overflow=hidden;rotatable=0;points=[[0,0.5],[1,0.5]];portConstraint=eastwest;fontSize=14;" vertex="1" parent="WeeLCfKM3l2U3quB_03S-0">
          <mxGeometry y="126" width="140" height="26" as="geometry" />
        </mxCell>
        <mxCell id="WeeLCfKM3l2U3quB_03S-12" value="Email " style="text;strokeColor=none;fillColor=none;spacingLeft=4;spacingRight=4;overflow=hidden;rotatable=0;points=[[0,0.5],[1,0.5]];portConstraint=eastwest;fontSize=14;" vertex="1" parent="WeeLCfKM3l2U3quB_03S-0">
          <mxGeometry y="152" width="140" height="26" as="geometry" />
        </mxCell>
        <mxCell id="WeeLCfKM3l2U3quB_03S-35" value="address" style="text;strokeColor=none;fillColor=none;spacingLeft=4;spacingRight=4;overflow=hidden;rotatable=0;points=[[0,0.5],[1,0.5]];portConstraint=eastwest;fontSize=14;" vertex="1" parent="WeeLCfKM3l2U3quB_03S-0">
          <mxGeometry y="178" width="140" height="26" as="geometry" />
        </mxCell>
        <mxCell id="WeeLCfKM3l2U3quB_03S-36" value="gender" style="text;strokeColor=none;fillColor=none;spacingLeft=4;spacingRight=4;overflow=hidden;rotatable=0;points=[[0,0.5],[1,0.5]];portConstraint=eastwest;fontSize=14;" vertex="1" parent="WeeLCfKM3l2U3quB_03S-0">
          <mxGeometry y="204" width="140" height="26" as="geometry" />
        </mxCell>
        <mxCell id="WeeLCfKM3l2U3quB_03S-37" value="password" style="text;strokeColor=none;fillColor=none;spacingLeft=4;spacingRight=4;overflow=hidden;rotatable=0;points=[[0,0.5],[1,0.5]];portConstraint=eastwest;fontSize=14;" vertex="1" parent="WeeLCfKM3l2U3quB_03S-0">
          <mxGeometry y="230" width="140" height="26" as="geometry" />
        </mxCell>
        <mxCell id="WeeLCfKM3l2U3quB_03S-38" value="photo" style="text;strokeColor=none;fillColor=none;spacingLeft=4;spacingRight=4;overflow=hidden;rotatable=0;points=[[0,0.5],[1,0.5]];portConstraint=eastwest;fontSize=14;" vertex="1" parent="WeeLCfKM3l2U3quB_03S-0">
          <mxGeometry y="256" width="140" height="26" as="geometry" />
        </mxCell>
        <mxCell id="WeeLCfKM3l2U3quB_03S-5" value="Patient" style="swimlane;fontStyle=0;childLayout=stackLayout;horizontal=1;startSize=22;horizontalStack=0;resizeParent=1;resizeParentMax=0;resizeLast=0;collapsible=1;marginBottom=0;align=center;fontSize=14;rounded=1;glass=0;fillColor=#f5f5f5;strokeColor=#666666;fontColor=#333333;labelBackgroundColor=#ffffff;" vertex="1" parent="SRl8x0ed0Uv4gBD99huN-1">
          <mxGeometry x="220" y="300" width="140" height="282" as="geometry" />
        </mxCell>
        <mxCell id="WeeLCfKM3l2U3quB_03S-6" value="_id" style="text;strokeColor=none;fillColor=none;spacingLeft=4;spacingRight=4;overflow=hidden;rotatable=0;points=[[0,0.5],[1,0.5]];portConstraint=eastwest;fontSize=14;" vertex="1" parent="WeeLCfKM3l2U3quB_03S-5">
          <mxGeometry y="22" width="140" height="26" as="geometry" />
        </mxCell>
        <mxCell id="WeeLCfKM3l2U3quB_03S-7" value="name" style="text;strokeColor=none;fillColor=none;spacingLeft=4;spacingRight=4;overflow=hidden;rotatable=0;points=[[0,0.5],[1,0.5]];portConstraint=eastwest;fontSize=14;" vertex="1" parent="WeeLCfKM3l2U3quB_03S-5">
          <mxGeometry y="48" width="140" height="26" as="geometry" />
        </mxCell>
        <mxCell id="WeeLCfKM3l2U3quB_03S-8" value="birthDate" style="text;strokeColor=none;fillColor=none;spacingLeft=4;spacingRight=4;overflow=hidden;rotatable=0;points=[[0,0.5],[1,0.5]];portConstraint=eastwest;fontSize=14;" vertex="1" parent="WeeLCfKM3l2U3quB_03S-5">
          <mxGeometry y="74" width="140" height="26" as="geometry" />
        </mxCell>
        <mxCell id="WeeLCfKM3l2U3quB_03S-9" value="address" style="text;strokeColor=none;fillColor=none;spacingLeft=4;spacingRight=4;overflow=hidden;rotatable=0;points=[[0,0.5],[1,0.5]];portConstraint=eastwest;fontSize=14;" vertex="1" parent="WeeLCfKM3l2U3quB_03S-5">
          <mxGeometry y="100" width="140" height="26" as="geometry" />
        </mxCell>
        <mxCell id="WeeLCfKM3l2U3quB_03S-40" value="city" style="text;strokeColor=none;fillColor=none;spacingLeft=4;spacingRight=4;overflow=hidden;rotatable=0;points=[[0,0.5],[1,0.5]];portConstraint=eastwest;fontSize=14;" vertex="1" parent="WeeLCfKM3l2U3quB_03S-5">
          <mxGeometry y="126" width="140" height="26" as="geometry" />
        </mxCell>
        <mxCell id="WeeLCfKM3l2U3quB_03S-41" value="gender" style="text;strokeColor=none;fillColor=none;spacingLeft=4;spacingRight=4;overflow=hidden;rotatable=0;points=[[0,0.5],[1,0.5]];portConstraint=eastwest;fontSize=14;" vertex="1" parent="WeeLCfKM3l2U3quB_03S-5">
          <mxGeometry y="152" width="140" height="26" as="geometry" />
        </mxCell>
        <mxCell id="WeeLCfKM3l2U3quB_03S-42" value="nidNumber" style="text;strokeColor=none;fillColor=none;spacingLeft=4;spacingRight=4;overflow=hidden;rotatable=0;points=[[0,0.5],[1,0.5]];portConstraint=eastwest;fontSize=14;" vertex="1" parent="WeeLCfKM3l2U3quB_03S-5">
          <mxGeometry y="178" width="140" height="26" as="geometry" />
        </mxCell>
        <mxCell id="WeeLCfKM3l2U3quB_03S-43" value="photo" style="text;strokeColor=none;fillColor=none;spacingLeft=4;spacingRight=4;overflow=hidden;rotatable=0;points=[[0,0.5],[1,0.5]];portConstraint=eastwest;fontSize=14;" vertex="1" parent="WeeLCfKM3l2U3quB_03S-5">
          <mxGeometry y="204" width="140" height="26" as="geometry" />
        </mxCell>
        <mxCell id="WeeLCfKM3l2U3quB_03S-44" value="bloodGroup" style="text;strokeColor=none;fillColor=none;spacingLeft=4;spacingRight=4;overflow=hidden;rotatable=0;points=[[0,0.5],[1,0.5]];portConstraint=eastwest;fontSize=14;" vertex="1" parent="WeeLCfKM3l2U3quB_03S-5">
          <mxGeometry y="230" width="140" height="26" as="geometry" />
        </mxCell>
        <mxCell id="WeeLCfKM3l2U3quB_03S-45" value="name" style="text;strokeColor=none;fillColor=none;spacingLeft=4;spacingRight=4;overflow=hidden;rotatable=0;points=[[0,0.5],[1,0.5]];portConstraint=eastwest;fontSize=14;" vertex="1" parent="WeeLCfKM3l2U3quB_03S-5">
          <mxGeometry y="256" width="140" height="26" as="geometry" />
        </mxCell>
        <mxCell id="WeeLCfKM3l2U3quB_03S-21" value="Doctor" style="swimlane;fontStyle=0;childLayout=stackLayout;horizontal=1;startSize=22;horizontalStack=0;resizeParent=1;resizeParentMax=0;resizeLast=0;collapsible=1;marginBottom=0;align=center;fontSize=14;rounded=1;glass=0;fillColor=#f5f5f5;strokeColor=#666666;fontColor=#333333;" vertex="1" parent="SRl8x0ed0Uv4gBD99huN-1">
          <mxGeometry x="740" y="210" width="140" height="152" as="geometry" />
        </mxCell>
        <mxCell id="WeeLCfKM3l2U3quB_03S-22" value="_id" style="text;strokeColor=none;fillColor=none;spacingLeft=4;spacingRight=4;overflow=hidden;rotatable=0;points=[[0,0.5],[1,0.5]];portConstraint=eastwest;fontSize=14;" vertex="1" parent="WeeLCfKM3l2U3quB_03S-21">
          <mxGeometry y="22" width="140" height="26" as="geometry" />
        </mxCell>
        <mxCell id="WeeLCfKM3l2U3quB_03S-27" value="Email " style="text;strokeColor=none;fillColor=none;spacingLeft=4;spacingRight=4;overflow=hidden;rotatable=0;points=[[0,0.5],[1,0.5]];portConstraint=eastwest;fontSize=14;" vertex="1" parent="WeeLCfKM3l2U3quB_03S-21">
          <mxGeometry y="48" width="140" height="26" as="geometry" />
        </mxCell>
        <mxCell id="WeeLCfKM3l2U3quB_03S-23" value="name" style="text;strokeColor=none;fillColor=none;spacingLeft=4;spacingRight=4;overflow=hidden;rotatable=0;points=[[0,0.5],[1,0.5]];portConstraint=eastwest;fontSize=14;" vertex="1" parent="WeeLCfKM3l2U3quB_03S-21">
          <mxGeometry y="74" width="140" height="26" as="geometry" />
        </mxCell>
        <mxCell id="WeeLCfKM3l2U3quB_03S-24" value="birthDate" style="text;strokeColor=none;fillColor=none;spacingLeft=4;spacingRight=4;overflow=hidden;rotatable=0;points=[[0,0.5],[1,0.5]];portConstraint=eastwest;fontSize=14;" vertex="1" parent="WeeLCfKM3l2U3quB_03S-21">
          <mxGeometry y="100" width="140" height="26" as="geometry" />
        </mxCell>
        <mxCell id="WeeLCfKM3l2U3quB_03S-25" value="bmdcNumber" style="text;strokeColor=none;fillColor=none;spacingLeft=4;spacingRight=4;overflow=hidden;rotatable=0;points=[[0,0.5],[1,0.5]];portConstraint=eastwest;fontSize=14;" vertex="1" parent="WeeLCfKM3l2U3quB_03S-21">
          <mxGeometry y="126" width="140" height="26" as="geometry" />
        </mxCell>
        <mxCell id="WeeLCfKM3l2U3quB_03S-46" value="Medicine" style="swimlane;fontStyle=0;childLayout=stackLayout;horizontal=1;startSize=22;horizontalStack=0;resizeParent=1;resizeParentMax=0;resizeLast=0;collapsible=1;marginBottom=0;align=center;fontSize=14;rounded=1;glass=0;fillColor=#f5f5f5;strokeColor=#666666;fontColor=#333333;labelBackgroundColor=#ffffff;" vertex="1" parent="SRl8x0ed0Uv4gBD99huN-1">
          <mxGeometry x="30" y="620" width="140" height="256" as="geometry" />
        </mxCell>
        <mxCell id="WeeLCfKM3l2U3quB_03S-47" value="_id" style="text;strokeColor=none;fillColor=none;spacingLeft=4;spacingRight=4;overflow=hidden;rotatable=0;points=[[0,0.5],[1,0.5]];portConstraint=eastwest;fontSize=14;" vertex="1" parent="WeeLCfKM3l2U3quB_03S-46">
          <mxGeometry y="22" width="140" height="26" as="geometry" />
        </mxCell>
        <mxCell id="WeeLCfKM3l2U3quB_03S-48" value="name" style="text;strokeColor=none;fillColor=none;spacingLeft=4;spacingRight=4;overflow=hidden;rotatable=0;points=[[0,0.5],[1,0.5]];portConstraint=eastwest;fontSize=14;" vertex="1" parent="WeeLCfKM3l2U3quB_03S-46">
          <mxGeometry y="48" width="140" height="26" as="geometry" />
        </mxCell>
        <mxCell id="WeeLCfKM3l2U3quB_03S-49" value="company" style="text;strokeColor=none;fillColor=none;spacingLeft=4;spacingRight=4;overflow=hidden;rotatable=0;points=[[0,0.5],[1,0.5]];portConstraint=eastwest;fontSize=14;" vertex="1" parent="WeeLCfKM3l2U3quB_03S-46">
          <mxGeometry y="74" width="140" height="26" as="geometry" />
        </mxCell>
        <mxCell id="WeeLCfKM3l2U3quB_03S-50" value="geneticName" style="text;strokeColor=none;fillColor=none;spacingLeft=4;spacingRight=4;overflow=hidden;rotatable=0;points=[[0,0.5],[1,0.5]];portConstraint=eastwest;fontSize=14;" vertex="1" parent="WeeLCfKM3l2U3quB_03S-46">
          <mxGeometry y="100" width="140" height="26" as="geometry" />
        </mxCell>
        <mxCell id="WeeLCfKM3l2U3quB_03S-51" value="alternative" style="text;strokeColor=none;fillColor=none;spacingLeft=4;spacingRight=4;overflow=hidden;rotatable=0;points=[[0,0.5],[1,0.5]];portConstraint=eastwest;fontSize=14;" vertex="1" parent="WeeLCfKM3l2U3quB_03S-46">
          <mxGeometry y="126" width="140" height="26" as="geometry" />
        </mxCell>
        <mxCell id="WeeLCfKM3l2U3quB_03S-52" value="price" style="text;strokeColor=none;fillColor=none;spacingLeft=4;spacingRight=4;overflow=hidden;rotatable=0;points=[[0,0.5],[1,0.5]];portConstraint=eastwest;fontSize=14;" vertex="1" parent="WeeLCfKM3l2U3quB_03S-46">
          <mxGeometry y="152" width="140" height="26" as="geometry" />
        </mxCell>
        <mxCell id="WeeLCfKM3l2U3quB_03S-53" value="contraindication" style="text;strokeColor=none;fillColor=none;spacingLeft=4;spacingRight=4;overflow=hidden;rotatable=0;points=[[0,0.5],[1,0.5]];portConstraint=eastwest;fontSize=14;" vertex="1" parent="WeeLCfKM3l2U3quB_03S-46">
          <mxGeometry y="178" width="140" height="26" as="geometry" />
        </mxCell>
        <mxCell id="WeeLCfKM3l2U3quB_03S-54" value="sideEffect" style="text;strokeColor=none;fillColor=none;spacingLeft=4;spacingRight=4;overflow=hidden;rotatable=0;points=[[0,0.5],[1,0.5]];portConstraint=eastwest;fontSize=14;" vertex="1" parent="WeeLCfKM3l2U3quB_03S-46">
          <mxGeometry y="204" width="140" height="26" as="geometry" />
        </mxCell>
        <mxCell id="WeeLCfKM3l2U3quB_03S-55" value="warning" style="text;strokeColor=none;fillColor=none;spacingLeft=4;spacingRight=4;overflow=hidden;rotatable=0;points=[[0,0.5],[1,0.5]];portConstraint=eastwest;fontSize=14;" vertex="1" parent="WeeLCfKM3l2U3quB_03S-46">
          <mxGeometry y="230" width="140" height="26" as="geometry" />
        </mxCell>
      </root>
    </mxGraphModel>
  </diagram>
</mxfile>
